HIERARCHY
ROOT hip
{
	OFFSET 0.000000 0.000000 0.000000 
	CHANNELS 6 Xposition Yposition Zposition Xrotation Zrotation Yrotation
	JOINT abdomen
	{
		OFFSET 0.000000 3.402643 0.000000 
		CHANNELS 3 Xrotation Zrotation Yrotation
		JOINT chest
		{
			OFFSET 0.000000 8.438565 -0.680529 
			CHANNELS 3 Xrotation Zrotation Yrotation
			JOINT neck
			{
				OFFSET 0.000000 10.207942 -0.272212 
				CHANNELS 3 Xrotation Zrotation Yrotation
				JOINT head
				{
					OFFSET 0.000000 3.130431 0.000000 
					CHANNELS 3 Xrotation Zrotation Yrotation
					End Site
					{
						OFFSET 0.000000 3.130435 0.000000 
					}
				}
			}
			JOINT lCollar
			{
				OFFSET 3.470700 6.669187 -0.816635 
				CHANNELS 3 Yrotation Zrotation Xrotation
				JOINT lShldr
				{
					OFFSET 3.198488 0.000000 0.000000 
					CHANNELS 3 Zrotation Yrotation Xrotation
					JOINT lForeArm
					{
						OFFSET 10.139888 0.000000 0.000000 
						CHANNELS 3 Yrotation Zrotation Xrotation
						JOINT lHand
						{
							OFFSET 8.370511 0.000000 0.000000 
							CHANNELS 3 Zrotation Yrotation Xrotation
							End Site
							{
								OFFSET 4.083176 0.000000 0.000000 
							}
						}
					}
				}
			}
			JOINT rCollar
			{
				OFFSET -3.470700 6.669187 -0.816635 
				CHANNELS 3 Yrotation Zrotation Xrotation
				JOINT rShldr
				{
					OFFSET -3.198488 0.000000 0.000000 
					CHANNELS 3 Zrotation Yrotation Xrotation
					JOINT rForeArm
					{
						OFFSET -10.139888 0.000000 0.000000 
						CHANNELS 3 Yrotation Zrotation Xrotation
						JOINT rHand
						{
							OFFSET -8.370511 0.000000 0.000000 
							CHANNELS 3 Zrotation Yrotation Xrotation
							End Site
							{
								OFFSET -4.083176 0.000000 0.000000 
							}
						}
					}
				}
			}
		}
	}
	JOINT lThigh
	{
		OFFSET 5.308129 -1.633274 1.361059 
		CHANNELS 3 Xrotation Zrotation Yrotation
		JOINT lShin
		{
			OFFSET -2.041588 -20.007561 0.000000 
			CHANNELS 3 Xrotation Zrotation Yrotation
			JOINT lFoot
			{
				OFFSET 0.000000 -19.190928 -1.224953 
				CHANNELS 3 Xrotation Yrotation Zrotation
				End Site
				{
					OFFSET 0.000000 -2.449906 4.627600 
				}
			}
		}
	}
	JOINT rThigh
	{
		OFFSET -5.308129 -1.633274 1.361059 
		CHANNELS 3 Xrotation Zrotation Yrotation
		JOINT rShin
		{
			OFFSET 2.041588 -20.007561 0.000000 
			CHANNELS 3 Xrotation Zrotation Yrotation
			JOINT rFoot
			{
				OFFSET 0.000000 -19.190928 -1.224953 
				CHANNELS 3 Xrotation Yrotation Zrotation
				End Site
				{
					OFFSET 0.000000 -2.449906 4.627600 
				}
			}
		}
	}
}
MOTION
Frames: 15
Frame Time: 0.016667
0.325398 34.421669 0.521224 12.107411 4.763304 8.971023 -14.382700 1.276250 -3.233910 21.590700 7.410920 -1.438730 -9.466510 5.331370 0.201387 3.616160 7.627480 1.071000 2.000000 -2.000000 0.000000 -96.700699 -13.703900 -155.888000 60.225101 -0.282742 0.118721 -179.946716 -183.290665 -1.160671 -2.000000 2.000000 0.000000 79.344200 18.468300 -159.731995 -104.522003 0.183015 0.113140 -0.056000 -0.012857 -128.815994 17.409431 -15.473909 5.978097 16.310827 13.451775 1.501308 -10.572414 -2.514038 -5.470269 -49.184143 -0.666815 -3.030563 82.457634 -1.071054 -6.916892 -13.605689 -9.139807 6.050690 
0.556814 34.579842 1.904446 13.210965 4.236396 8.971549 -14.242000 2.063380 -3.427600 21.728300 7.332470 -1.393390 -9.824310 4.398610 0.987634 3.477960 7.315120 1.397590 2.000000 -2.000000 0.000000 -95.897400 -10.693700 -154.753998 56.543499 -0.290222 0.114117 -179.776077 -183.304337 4.891409 -2.000000 2.000000 0.000000 77.930000 21.961300 -158.343994 -99.189903 0.194574 0.115566 -0.057343 -0.020838 -125.926003 15.341115 -12.698461 5.907691 21.070211 9.380451 1.451202 -6.351711 -2.068584 -2.881418 -47.627129 -0.828664 -3.567420 82.604294 -1.042767 -6.912232 -17.383268 -3.744352 7.245087 
0.787117 34.390999 3.170756 14.942822 4.237017 8.738752 -14.108600 2.741350 -3.219690 21.945000 7.341620 -1.169170 -9.449110 3.152100 1.077490 3.831630 6.845940 1.375540 2.000000 -2.000000 0.000000 -95.350197 -8.331690 -155.363998 52.588402 -0.297910 0.108648 -179.738541 -183.309402 6.485054 -2.000000 2.000000 0.000000 77.260399 25.857901 -158.363998 -91.435997 0.211668 0.117155 -0.059014 -0.028450 -123.142998 9.846547 -10.375508 4.894743 30.271408 4.876586 1.882942 -2.626236 -3.866516 -0.346629 -46.204185 -0.580602 -4.190580 79.584999 -1.299076 -6.731168 -18.076296 -12.090226 3.767853 
0.995770 34.390778 4.448423 16.660528 4.281478 8.472345 -13.996600 3.258900 -2.721200 21.855499 7.048990 -0.855010 -10.296800 2.797390 1.419950 3.674230 6.826640 1.591410 2.000000 -2.000000 0.000000 -94.666298 -6.291250 -155.632004 47.734798 -0.306800 0.101232 0.355010 3.278248 -170.678909 -2.000000 2.000000 0.000000 77.256203 28.811100 -160.158997 -82.451698 0.232809 0.135540 -0.060594 -0.034397 -120.945000 3.922133 -9.816996 4.316649 39.798950 3.520653 2.580307 2.028627 -4.013263 0.529449 -44.633747 -0.489930 -3.624004 77.317230 -1.506875 -6.589174 -21.544287 -13.497882 2.003701 
1.237687 34.286411 5.689414 17.137627 3.502518 6.972135 -13.261000 3.793650 -1.469830 21.734600 5.809330 -0.153817 -11.880100 3.136560 0.622377 3.300570 6.983230 1.348860 2.000000 -2.000000 0.000000 -93.239304 -4.590030 -154.707001 42.803200 -0.315157 0.092953 0.450274 3.277180 -167.090561 -2.000000 2.000000 0.000000 78.260399 32.002998 -163.813995 -72.510300 0.255938 0.130404 -0.062180 -0.039602 -119.001999 -2.295116 -8.555170 4.946525 51.734390 2.618743 3.266537 5.114954 -3.562822 0.850836 -42.432838 0.938479 -3.169249 75.381386 -1.675511 -6.459881 -23.438148 -14.924247 0.287239 
1.514982 34.269787 6.975888 17.101475 1.809913 5.207161 -12.189700 4.330060 0.182477 21.838800 3.797880 0.788523 -14.881400 3.736840 -0.167035 2.247190 7.343780 1.181430 2.000000 -2.000000 0.000000 -91.324097 -3.113620 -153.871002 39.482800 -0.320369 0.086988 0.532799 3.265889 -164.235733 -2.000000 2.000000 0.000000 78.927696 36.878899 -169.240005 -59.932201 0.283348 0.118325 -0.064016 -0.044957 -116.980003 -8.004847 -6.744385 5.249392 62.079372 1.723321 3.779484 5.403910 -1.917498 0.800836 -39.844547 3.039834 -3.693080 73.083313 -1.867209 -6.298274 -24.093542 -16.147429 -1.157707 
1.750409 34.401562 8.318971 16.977507 -0.957485 3.557810 -11.235500 5.100760 1.581850 21.856199 1.894040 1.674120 -18.445000 4.756830 -1.127850 1.281890 7.428720 1.043940 2.000000 -2.000000 0.000000 -89.927299 -1.384840 -153.746994 35.547199 -0.326086 0.079542 0.705255 3.222796 -157.773117 -2.000000 2.000000 0.000000 -100.398003 136.442993 3.386550 -45.762199 0.310228 0.097955 -0.069601 -0.058414 -111.775002 -14.048076 -3.368898 5.419522 71.653351 0.830382 4.151675 3.942072 -0.318811 0.365735 -36.678696 5.902136 -5.099859 69.875862 -2.053373 -6.084500 -23.987886 -16.422113 -2.048037 
1.937441 34.445595 9.749261 16.821070 -2.280878 1.519344 -10.116600 5.387740 3.294050 22.236401 0.575924 2.614640 -20.702000 5.209020 -1.972630 0.611370 7.571710 0.830996 2.000000 -2.000000 0.000000 -88.356697 0.017982 -155.341995 32.256199 -0.330466 0.073025 0.746167 3.201160 -155.925797 -2.000000 2.000000 0.000000 -100.010002 128.824005 -9.881470 -30.771799 0.332317 0.069951 -0.079727 -0.076766 -104.285004 -19.783262 -1.583745 5.573539 79.284355 0.019283 4.418119 2.802968 1.663073 -0.222724 -33.385990 7.599181 -5.161544 67.175339 -2.270047 -5.892258 -24.415461 -16.323944 -2.832518 
2.073067 34.520187 11.249660 17.177319 -2.270947 -0.060323 -9.367960 5.627430 4.812020 22.382900 0.468512 3.374390 -22.402599 6.125740 -3.008500 0.036433 8.045420 0.565845 2.000000 -2.000000 0.000000 -87.216599 2.424680 -157.817001 30.215200 -0.332991 0.068862 0.816273 3.177730 -153.325363 -2.000000 2.000000 0.000000 -101.666000 122.373001 -35.013901 -19.687700 0.343572 0.046062 -0.096453 -0.098531 -94.470703 -26.076866 -1.175464 5.585442 84.869926 -0.712770 4.595077 1.544197 3.161030 -0.896933 -30.572435 7.791759 -4.649257 64.503273 -2.492768 -5.684138 -25.054983 -15.826385 -3.363860 
2.119283 34.645897 12.777168 18.074327 -1.630230 -0.812980 -9.003440 5.444610 6.309930 22.275400 0.302598 4.052100 -25.451000 7.468420 -4.586630 -1.135840 8.793570 0.148558 2.000000 -2.000000 0.000000 -84.815399 5.323280 -158.625000 30.547199 -0.332590 0.069545 0.816273 3.177730 -153.325363 -2.000000 2.000000 0.000000 73.167000 60.838501 113.265999 -14.824400 0.347013 0.034983 -0.089522 -0.090428 -98.279297 -32.950829 -1.680932 5.302194 88.368805 -1.274129 4.730905 0.769423 4.252643 -1.586614 -28.220289 7.246465 -4.186760 61.664177 -2.718078 -5.452588 -25.627697 -15.584003 -3.848935 
2.149468 34.791374 14.519197 18.808065 -1.752302 -0.499046 -8.814210 5.324660 7.394310 22.294901 0.058567 4.552570 -27.154100 7.890300 -5.699090 -1.821140 9.037650 -0.284196 2.000000 -2.000000 0.000000 -81.739998 9.015160 -158.417999 32.441799 -0.330229 0.073399 0.785363 3.192848 -154.478821 -2.000000 2.000000 0.000000 70.334602 58.917500 110.054001 -18.506100 0.344494 0.043398 -0.054823 -0.011667 -132.751999 -39.164238 -2.224847 3.753453 89.531883 -1.640254 4.837084 -0.997229 4.451157 -2.270509 -25.076305 7.043434 -4.822143 58.266655 -2.957513 -5.146789 -25.654524 -14.969544 -4.069008 
2.165128 35.000771 16.410187 19.381315 -2.878430 0.559019 -8.432520 5.162420 7.763620 22.851601 -0.400070 4.749530 -28.169399 8.813410 -6.664360 -2.174310 9.489010 -0.554357 2.000000 -2.000000 0.000000 -79.017097 12.530400 -158.572006 34.131199 -0.328016 0.076769 0.739119 3.198786 -156.541672 -2.000000 2.000000 0.000000 69.497803 55.621700 115.333000 -24.248301 0.339502 0.056152 -0.061761 0.048037 -154.343994 -44.810852 -2.535450 1.594900 88.922485 -1.753085 4.927276 -3.274348 4.701908 -2.993060 -21.297039 7.773611 -6.250718 53.890091 -3.197552 -4.775071 -24.476933 -13.853772 -3.742837 
2.152502 35.271618 18.480917 19.542213 -3.906808 2.340363 -7.985420 5.247740 7.537480 23.408199 -0.058521 4.674810 -28.824600 9.556670 -7.805260 -2.351560 10.010400 -0.914507 2.000000 -2.000000 0.000000 -77.729103 15.265800 -158.139008 33.545300 -0.328795 0.075608 0.688200 3.219880 -158.389297 -2.000000 2.000000 0.000000 67.900002 51.873901 121.917999 -27.695601 0.335901 0.063546 -0.063235 0.052504 -156.022995 -49.168522 -3.568614 -0.524289 86.323090 -1.627197 4.939273 -5.006914 5.312997 -3.578936 -16.880463 8.516649 -7.533056 49.159428 -3.467369 -4.362071 -22.379700 -11.698846 -2.723325 
2.122383 35.602791 20.624893 19.783766 -4.453766 4.202941 -7.703010 5.727010 6.781810 23.516899 1.657940 4.324250 -29.199200 9.884340 -7.664770 -2.656180 10.383500 -0.756828 2.000000 -2.000000 0.000000 -78.844902 18.008600 -158.750000 31.953501 -0.330849 0.072413 0.694439 3.227165 -158.164124 -2.000000 2.000000 0.000000 66.135902 48.142700 129.496002 -30.908501 0.332149 0.070231 -0.059540 0.040283 -151.462997 -52.710003 -5.027548 -1.634436 81.779793 -1.298285 4.938368 -6.454010 6.039483 -3.952006 -12.960781 9.026168 -8.160720 44.594540 -3.711546 -3.924922 -18.333595 -9.338499 -1.338093 
2.088233 35.876671 22.878845 20.014338 -4.996365 5.641335 -7.595000 5.473330 6.321370 23.429701 2.106730 4.051300 -27.998899 9.861290 -7.400660 -2.097740 10.247800 -0.670370 2.000000 -2.000000 0.000000 -79.150200 20.282101 -159.595001 30.761999 -0.332329 0.069986 0.714694 3.218912 -157.430923 -2.000000 2.000000 0.000000 66.602600 43.393799 137.160995 -37.383202 0.323483 0.083011 -0.061950 0.048637 -154.567993 -55.393478 -5.974901 -1.764135 76.313759 -0.832716 4.866755 -8.829018 5.942297 -4.211727 -9.087809 9.655659 -7.977582 40.214691 -3.951435 -3.492437 -13.124303 -4.229273 0.729876 
